PathFileType	4	(X/Y/Z)	Patient4_TMGait_0pt6_01_right_12.trc.trc
DataRate	CameraRate	NumFrames	NumMarkers	Units	OrigDataRate	OrigDataStartFrame	OrigNumFrames
80.459770114943	80.459770114943	4	33	mm	80.459770114943	53	       141
Frame#	Time	Sacral			L.Shoulder			Chest			R.Shoulder			Neck			R.ASIS			L.ASIS			R.Thigh.Superior			R.Thigh.Lateral			R.Thigh.Inferior			R.Patella			L.Thigh.Superior			L.Thigh.Lateral			L.Thigh.Inferior			L.Patella			L.Shank.Superior			L.Shank.Lateral			L.Shank.Inferior			R.Shank.Superior			R.Shank.Lateral			R.Shank.Inferior			R.Heel			R.Midfoot.Superior			R.Midfoot.Lateral			R.Toe			L.Heel			L.Midfoot.Lateral			L.Midfoot.Superior			L.Toe			L.Elbow			L.Wrist			R.Elbow			R.Wrist			
		X1	Y1	Z1	X2	Y2	Z2	X3	Y3	Z3	X4	Y4	Z4	X5	Y5	Z5	X6	Y6	Z6	X7	Y7	Z7	X8	Y8	Z8	X9	Y9	Z9	X10	Y10	Z10	X11	Y11	Z11	X12	Y12	Z12	X13	Y13	Z13	X14	Y14	Z14	X15	Y15	Z15	X16	Y16	Z16	X17	Y17	Z17	X18	Y18	Z18	X19	Y19	Z19	X20	Y20	Z20	X21	Y21	Z21	X22	Y22	Z22	X23	Y23	Z23	X24	Y24	Z24	X25	Y25	Z25	X26	Y26	Z26	X27	Y27	Z27	X28	Y28	Z28	X29	Y29	Z29	X30	Y30	Z30	X31	Y31	Z31	X32	Y32	Z32	X33	Y33	Z33	

53	14.586285714286	672.198347503593	1011.897863266748	530.853958547586	819.735186825911	1444.399081761922	345.399115269163	941.233367598561	1373.540521817656	492.352387930437	876.930527501643	1439.671888287598	675.835516003898	819.366391888396	1501.431163890204	502.244734441387	905.441485576507	949.501684057585	630.997849495117	872.762578463508	970.095467097996	358.920565903510	927.448201682944	742.151134720683	602.053295053072	837.052678649799	637.363114493279	660.368395943478	908.793824329663	581.121211388680	580.685304849174	900.874151978566	494.161565720574	584.938409675408	958.655832099206	788.195227100341	380.053730786527	911.150025361216	661.670310572346	300.971899501872	1018.878744980056	601.330852478808	352.692776005365	1038.699884698364	519.354768303572	343.705118574445	991.604326161696	444.718660789938	336.945218919615	869.217724184341	361.213342616377	292.776713001725	903.254819065896	233.442454323287	342.719174124543	870.610533224573	406.629306596087	587.518409913098	793.090163667669	303.834268277007	642.113752510191	835.356632520422	209.547751377252	577.401480634185	695.188266679352	47.000613633699	537.806487810180	868.948748999294	97.285061958910	576.035609946937	778.118123617061	37.780889792930	612.093193178937	986.271290080845	39.707659562127	603.534681586765	748.475348692291	105.556498635901	387.244595051664	811.261276611447	89.177190482875	300.046096329645	908.623519532243	131.495475123686	316.703692822452	1017.015783380855	56.131636664841	274.289266340355	794.160094459499	1085.883204856550	239.008138603019	857.229035633360	834.107570151198	227.241748321720	963.617791511082	1099.446222401085	788.930398521623	1196.185975645294	989.072558912497	758.034977775955	
54	14.598714285714	670.939253571262	1011.777573055041	531.260773646584	818.550144264135	1444.098448009746	345.659334143839	940.371719622892	1373.038408031828	492.263107650505	876.664437195660	1439.295839368853	675.866631976999	818.561990831970	1500.981397095958	502.479710084090	904.160463171354	948.835895530032	630.972577870671	871.163626840173	969.890901898886	358.947401143204	924.064373170929	741.033117312117	601.461369988281	832.808548240281	636.937172173263	660.272266613304	903.407810628474	580.189573621507	580.296711629237	894.627989945466	493.571706457035	584.442424348692	956.875003880280	788.250434727578	380.409955793713	910.251513580766	661.762037601597	300.711923646784	1017.414463350912	601.767423319655	353.853521075155	1038.841047702996	521.799027279913	344.526756913275	995.594990472263	446.637593865594	336.835619350911	879.040819628528	356.149429732551	291.193532812384	920.648034936332	230.115637551398	340.727851814220	864.112917506057	406.029059573526	587.148116124758	786.404195832027	303.457901362551	641.861362782710	828.207927044928	209.089179715691	577.087662552271	687.631592582444	46.625267992048	537.715124041528	861.303346266303	97.192865662409	575.891367270798	770.518881501486	37.696526960267	612.059694097993	978.677516507269	39.820553554620	603.578853187273	773.709591213255	93.211220416312	383.725934312258	838.101958064726	80.448513465980	297.029450688977	932.921555080342	128.011459734274	314.426906679174	1045.704814027103	58.571553739881	272.937770471170	785.394440509065	1086.433089711125	239.127310473353	837.146112407680	832.373895586772	227.248839097185	972.457969950174	1102.284113788555	788.602448422901	1210.484652353707	1005.244583809634	755.951104950296	
55	14.611142857143	669.681974142844	1011.391394176873	531.499068726266	817.443669065936	1443.556638512982	345.764839104401	939.543408979815	1372.265856940547	492.051120577787	876.377889839038	1438.641654759217	675.761951099488	817.782568013721	1500.280805513200	502.571412237960	902.927597999839	947.929000223010	630.831495690220	869.644942871151	969.358778413791	358.818197427227	920.776719999351	739.701438495674	600.833562075517	828.617176154585	636.328790144347	660.089887209333	898.048514780665	579.096047644397	579.795399472432	888.405128709831	492.800979725762	583.772597341491	954.885050295316	787.701441625110	380.812529286520	909.093847639673	661.437071735131	300.329674266045	1015.478786069118	601.576241859805	355.174783304925	1038.468876016797	523.739272668218	345.509418258368	999.078946519120	448.350657479579	336.904004077040	888.918967516403	351.235630732458	289.523972361660	937.759995459686	227.442623557363	339.001448496209	857.617063647879	405.265175225856	586.638838748030	779.785013920234	302.906061152197	641.554065927683	821.022071293511	208.477637740868	576.650919372811	680.037512390406	46.101186980906	537.592829806920	853.578628286269	97.084696259679	575.729787660525	762.874504044033	37.565056116133	612.012864415801	971.057664714735	39.984167781722	603.607650330836	798.931728067528	82.301908788694	380.226105096000	865.067087790531	72.821954730806	294.359613756755	957.073129952668	125.329896912297	312.653736777391	1073.897342255959	61.659244146236	272.805353839682	776.416369714466	1086.988825930036	239.048605000765	817.693401984614	831.282032141677	227.338425463694	980.941060311797	1105.098313999892	788.133425911811	1223.594741142979	1021.413395395258	753.796455096481	
56	14.623571428571	668.440762175813	1010.764194973109	531.583024174515	816.397704433984	1442.792666081187	345.711704624996	938.743079131413	1371.249556310378	491.703360852822	876.084970119237	1437.740254721152	675.514444051638	817.038853244233	1499.363424160097	502.511302781037	901.768423698368	946.820078764213	630.574716798307	868.189250710838	968.524249416556	358.541204304793	917.598911225703	738.197369283352	600.176784638460	824.501618816681	635.575398639921	659.833634494761	892.748784835205	577.871022466926	579.201928963509	882.236541327764	491.874049681215	582.964074870723	952.725370017076	786.633503135464	381.234893675848	907.739746951374	660.772694863257	299.800243222590	1013.192227378999	600.861495080693	356.516185585876	1037.675324282090	525.217369717904	346.549514060396	1002.088832363453	449.884449458750	337.097078892655	898.736272170428	346.608373581656	287.813179273745	954.357186354860	225.507035922531	337.589945626260	851.149592455353	404.370232240365	586.020091611468	773.244355962063	302.217372301095	641.222486973399	813.813852026727	207.746228359492	576.121598059027	672.411558754018	45.474343453183	537.452393876054	845.781937167569	96.958857497850	575.551467571696	755.192282498705	37.397276929975	611.958629976384	963.417224510052	40.190766864533	603.621791327512	823.728529931364	73.019801864937	376.896376437915	891.739432567303	66.409303272186	292.173880678317	980.725823361831	123.518753199189	311.449809411346	1101.216734316509	65.381907245009	273.950119549849	767.306716810219	1087.559438484339	238.805875947915	798.960557148983	830.720702417805	227.510709099581	989.038962946869	1107.869769925137	787.534439482594	1235.494779709905	1037.432342638268	751.587912017389	
